<svg xmlns="http://www.w3.org/2000/svg" viewBox="0 0 24 32" width="24" height="24" role="img" aria-hidden="true" class="control-icon" aria-label="お知らせを見る"><path d="m23.913 24.077-2.237-6.407v-3.745c0-4.405-3.105-8.097-7.25-9.042V3.97c0-.72-.546-1.304-1.219-1.304h-2.438c-.673 0-1.219.584-1.219 1.304v.913c-4.146.944-7.252 4.636-7.252 9.042v3.745L.105 23.956l-.001.004-.041.117c-.143.409-.079.863.171 1.216s.655.564 1.087.564H9.11c-.065.16-.103.33-.103.503 0 1.639 1.33 2.973 2.964 2.973s2.964-1.334 2.964-2.973c0-.173-.037-.343-.102-.503h7.822c.432 0 .837-.21 1.087-.564s.314-.807.171-1.216zM4.889 18.339c.049-.142.075-.292.075-.442v-3.972c0-3.643 2.991-6.608 6.667-6.608h.711c3.676 0 6.667 2.964 6.667 6.608v3.972c0 .151.026.3.075.442l1.691 4.842H3.2l1.689-4.842z"></path></svg>