<svg xmlns="http://www.w3.org/2000/svg" viewBox="0 0 189 32" width="24" height="24" role="img" aria-hidden="true" class="header-logo"><path d="M17.173 23.68v4.373H.106V24L11.359 8.373H.479V4h16.373v4L5.759 23.787l11.413-.107zM43.84 16c0 6.88-5.6 12.533-12.48 12.533S18.827 22.986 18.827 16c0-6.88 5.493-12.533 12.533-12.533 6.88 0 12.48 5.653 12.48 12.533zm-20.16 0c0 4.267 3.467 7.947 7.627 7.947 4.213 0 7.68-3.68 7.68-7.947 0-4.213-3.413-7.947-7.68-7.947-4.16 0-7.627 3.787-7.627 7.947zm38.933 7.68v4.373h-17.12V24L56.746 8.373h-10.88V4h16.373v4L51.146 23.787l11.467-.107zM89.173 16c0 6.88-5.6 12.533-12.48 12.533s-12.48-5.6-12.48-12.533c.053-6.88 5.6-12.533 12.587-12.533 6.88 0 12.373 5.653 12.373 12.533zm-20 0c0 4.267 3.467 7.947 7.627 7.947 4.213 0 7.68-3.68 7.68-7.947 0-4.213-3.413-7.947-7.68-7.947-4.16 0-7.627 3.787-7.627 7.947zm36.64-7.68h-5.227V28h-4.8V8.32h-5.12V4h15.2l-.053 4.32zm26.4 7.68c0 6.88-5.6 12.533-12.48 12.533s-12.48-5.6-12.48-12.533c0-6.88 5.493-12.533 12.48-12.533 6.773 0 12.48 5.653 12.48 12.533zm-20.16 0c0 4.267 3.467 7.947 7.627 7.947 4.213 0 7.68-3.68 7.68-7.947 0-4.213-3.413-7.947-7.68-7.947-4.16 0-7.627 3.787-7.627 7.947zm44.214 4 5.28-16h5.067l-8.107 22.4-.64 1.653h-3.413l-.587-1.653-4.107-13.333L145.6 26.4l-.587 1.653h-3.467l-.64-1.653L132.799 4h5.12l5.227 16 4.8-16h3.573l4.747 16zm27.253 8.053-9.707-16.427v16.427h-4.8V4h5.12l9.653 16.16V4h4.693v24.053h-4.96z"></path></svg>