<svg xmlns="http://www.w3.org/2000/svg" viewBox="0 0 30 32" width="24" height="24" role="img" aria-hidden="true" class="control-icon" aria-label="カートを見る"><path d="M7 7.094 5.748 2.653H0v2.648h3.743l4.104 14.574c.161.571.681.965 1.275.965h15.51c.58 0 1.092-.378 1.265-.931l3.97-12.815H7zm16.656 11.099H10.124l-2.378-8.45h18.53l-2.621 8.45zM8.952 24.215c-1.409 0-2.552 1.149-2.552 2.566s1.142 2.566 2.552 2.566c1.409 0 2.551-1.149 2.551-2.566s-1.142-2.566-2.551-2.566zm15.007 0c-1.409 0-2.552 1.149-2.552 2.566s1.142 2.566 2.552 2.566c1.409 0 2.551-1.149 2.551-2.566s-1.142-2.566-2.551-2.566z"></path></svg>