<svg xmlns="http://www.w3.org/2000/svg" viewBox="0 0 28 32" width="24" height="24" role="img" aria-hidden="true" class="control-icon"><path d="M20.026 5.178v-.006h-.11l-.01-.001v.001c-2.328.001-4.569 1.099-6.027 2.947-1.457-1.847-3.698-2.946-6.026-2.947v-.001l-.01.001h-.11v.006C3.539 5.243.147 8.671.147 12.881c0 1.482.357 2.473 1.061 3.893 1.523 3.074 10.724 10.784 11.768 11.654l.895.745.903-.736c.993-.81 9.762-8.016 11.749-11.605.805-1.454 1.091-2.488 1.091-3.95 0-4.21-3.394-7.638-7.587-7.703zm4.023 10.283c-1.313 2.372-7.128 7.501-10.162 10.039-3.798-3.222-9.271-8.214-10.147-9.982-.609-1.229-.767-1.771-.767-2.637a4.884 4.884 0 0 1 4.813-4.878h.064a4.83 4.83 0 0 1 3.224 1.245c.702.666 1.528 1.765 2.109 2.588a.842.842 0 0 0 1.395 0h-.001c.579-.821 1.403-1.917 2.105-2.585a4.825 4.825 0 0 1 3.227-1.248h.064a4.884 4.884 0 0 1 4.813 4.878c0 .969-.165 1.547-.737 2.58z"></path></svg>